<?xml version="1.0" encoding="utf-8"?>
<!-- Generator: Adobe Illustrator 16.0.0, SVG Export Plug-In . SVG Version: 6.00 Build 0)  -->
<!DOCTYPE svg PUBLIC "-//W3C//DTD SVG 1.1//EN" "http://www.w3.org/Graphics/SVG/1.1/DTD/svg11.dtd">
<svg version="1.1" id="레이어_1" xmlns="http://www.w3.org/2000/svg" xmlns:xlink="http://www.w3.org/1999/xlink" x="0px"
	 y="0px" width="70px" height="50px" viewBox="0 0 70 50" enable-background="new 0 0 70 50" xml:space="preserve">
<path fill="#444444" d="M4.066,21.684c0.46,0,0.897-0.219,1.136-0.59C5.537,20.57,5.285,19.9,4.678,19.6
	c-0.278-0.138-1.145-1.36-0.31-4.833C5.554,9.843,4.431,2.512,4.383,2.204C4.289,1.6,3.631,1.167,2.92,1.254
	c-0.714,0.08-1.215,0.634-1.121,1.238c0.012,0.072,1.112,7.275,0.015,11.835c-1.321,5.495,0.961,6.932,1.693,7.244
	C3.689,21.647,3.879,21.684,4.066,21.684z"/>
<path fill="#444444" d="M13,39.898c-0.5-0.238-1.104-0.162-1.507,0.14c0.25-0.495,0.541-1.013,0.881-1.552
	c1.484-2.355,1.659-4.286,0.519-5.745c-0.426-0.548-0.999-0.968-1.645-1.29c1.509-1.15,2.56-2.938,3.134-5.338
	c0.403-1.689,0.476-3.14,0.219-4.346c5.483-6.003,2.579-17.741,2.453-18.238c-0.151-0.596-0.841-0.981-1.548-0.847
	c-0.705,0.128-1.153,0.714-1,1.309c0.026,0.105,2.435,9.863-1.149,15.368c-0.149-0.154-0.31-0.297-0.481-0.433
	c-2.49-1.947-6.355-1.048-6.52-1.009c-0.644,0.155-1.043,0.697-0.926,1.254c0.154,0.734,1.068,4.43,3.925,5.029
	c0.903,0.186,1.833,0.039,2.777-0.442c-0.037,0.58-0.138,1.22-0.305,1.918c-0.563,2.352-1.603,3.902-3.093,4.604
	c-0.248,0.117-0.498,0.205-0.744,0.271c-1.619-0.204-3.029-0.116-3.324-0.094c-0.605,0.047-1.092,0.438-1.178,0.942
	c-0.085,0.51,0.256,1,0.821,1.185c0.089,0.028,1.753,0.562,3.771,0.22c1.1,0.182,2.149,0.526,2.639,1.153
	c0.713,0.912,0.042,2.403-0.646,3.493c-2.55,4.046-3.204,7.979-1.669,10.016c0.631,0.838,1.585,1.292,2.697,1.292
	c0.064,0,0.128,0,0.191-0.004c2.078-0.092,4.136-1.735,4.69-3.741C16.546,42.969,15.433,41.057,13,39.898z M9.981,22.061
	c-0.63-0.133-1.255-1.156-1.651-2.177c0.87-0.036,2.004,0.058,2.775,0.662c0.238,0.188,0.436,0.419,0.593,0.695
	C10.897,21.926,10.316,22.13,9.981,22.061z M13.445,44.509c-0.311,1.126-1.465,2.005-2.292,2.044
	c-0.171,0.004-0.353-0.009-0.551-0.271c-0.516-0.686-0.692-2.598,0.46-5.315c0.04,0.347,0.272,0.675,0.66,0.858
	C13.146,42.501,13.743,43.432,13.445,44.509z"/>
<path fill="#444444" d="M24.868,32.507c-0.074-0.055-0.162-0.077-0.244-0.116c0.779-1.244,0.902-2.287,0.391-3.166
	c-0.491-0.846-1.482-1.307-2.59-1.555c0.457-0.059,0.875-0.281,1.046-0.675c1.997-4.588,1.035-8.337,0.993-8.495
	c-0.159-0.595-0.855-0.967-1.554-0.833c-0.701,0.132-1.143,0.721-0.99,1.314c0.009,0.034,0.824,3.305-0.895,7.251
	c-0.215,0.494,0.034,1.021,0.538,1.291c-1.792-0.226-3.665-0.024-4.24,0.057c-0.71,0.095-1.192,0.66-1.08,1.262
	c0.115,0.6,0.79,1.008,1.494,0.916c2.235-0.304,4.635-0.086,4.94,0.439c0.028,0.049,0.604,1.183-4.287,5.078
	c-0.525,0.418-0.549,1.115-0.056,1.56c0.257,0.229,0.603,0.347,0.95,0.347c0.321,0,0.641-0.098,0.894-0.299
	c1.233-0.98,2.213-1.871,2.999-2.697l2.807,2.049c0.247,0.177,0.549,0.266,0.851,0.266c0.365,0,0.729-0.129,0.987-0.382
	c0.471-0.462,0.41-1.156-0.135-1.556L24.868,32.507z"/>
<path fill="#444444" d="M30.504,24.959c-0.708,0.11-1.175,0.688-1.044,1.287c0.012,0.051,1.122,5.292-0.906,10.76
	c-0.215,0.583,0.167,1.199,0.853,1.383c0.129,0.035,0.262,0.049,0.391,0.049c0.555,0,1.069-0.301,1.243-0.771
	c2.229-6.012,1.034-11.59,0.981-11.825C31.89,25.24,31.208,24.848,30.504,24.959z"/>
<path fill="#444444" d="M38.932,17.692c1.863,0.066,7.521,0.687,9.03,2.613c0.279,0.354,0.593,0.945,0.122,2.006
	c-1.645,3.72-2.793,4.529-3.037,4.667c-0.556,0.049-1.033,0.396-1.148,0.885c-0.141,0.597,0.316,1.178,1.022,1.296
	c0.106,0.019,0.216,0.026,0.33,0.026c1.247,0,3.091-1.158,5.274-6.102c0.817-1.852,0.238-3.196-0.391-3.999
	c-2.513-3.205-10.225-3.567-11.096-3.597c-0.689-0.036-1.326,0.447-1.357,1.055C37.652,17.153,38.211,17.667,38.932,17.692z"/>
<path fill="#444444" d="M45.768,36.368c-0.798-0.351-1.643-0.404-2.357-0.167c-0.1-0.314-0.254-0.633-0.485-0.93
	c-0.239-0.31-0.645-0.656-1.228-0.936c0.429-0.195,0.818-0.438,1.131-0.751c0.605-0.608,1.168-1.704,0.424-3.448
	c-0.924-2.162-0.809-6.945-0.686-8.607c0.045-0.606-0.5-1.13-1.219-1.169c-0.712-0.038-1.338,0.424-1.383,1.033
	c-0.02,0.261-0.464,6.458,0.835,9.493c0.261,0.608,0.271,1.041,0.029,1.283c-0.731,0.742-3.541,0.732-5.21,0.493
	c-0.07-0.009-0.134,0.008-0.203,0.008c-0.086-0.003-0.17-0.01-0.254,0.007c-0.09,0.012-0.17,0.045-0.253,0.074
	c-0.071,0.023-0.141,0.044-0.206,0.077c-0.079,0.045-0.14,0.101-0.207,0.155c-0.044,0.039-0.1,0.063-0.14,0.105
	c-0.01,0.01-0.012,0.025-0.022,0.035c-0.046,0.059-0.071,0.126-0.105,0.189c-0.037,0.072-0.079,0.141-0.097,0.215
	c-0.004,0.015-0.014,0.023-0.017,0.035c-0.01,0.054,0.008,0.1,0.005,0.148c-0.003,0.081-0.009,0.162,0.009,0.241
	c0.016,0.067,0.049,0.13,0.079,0.192c0.032,0.067,0.058,0.135,0.105,0.194c0.049,0.065,0.114,0.116,0.179,0.171
	c0.044,0.038,0.074,0.086,0.125,0.119c0.174,0.109,1.783,1.078,5.176,1.452c0.699,0.075,0.887,0.313,0.947,0.394
	c0.35,0.442,0.197,1.254,0.15,1.418c-0.44,1.017-1.312,3.489,0.12,4.598c0.317,0.244,0.794,0.467,1.479,0.467
	c0.469,0,1.039-0.104,1.722-0.376c2.845-1.144,3.47-2.552,3.49-3.537C47.729,37.953,46.969,36.898,45.768,36.368z M43.098,40.59
	c-0.106,0.043-0.197,0.076-0.272,0.1c0.002-0.474,0.215-1.34,0.544-2.105c0.007-0.021,0.021-0.066,0.04-0.13
	c0.312,0.046,0.638-0.017,0.921-0.19c0.163,0.02,0.628,0.211,0.745,0.58C45.238,39.367,44.48,40.034,43.098,40.59z"/>
<path fill="#444444" d="M53.105,30.581c-1.209-1.243-3.707-1.199-4.198-1.169c-0.718,0.031-1.265,0.552-1.228,1.156
	c0.035,0.609,0.661,1.109,1.365,1.043c0.758-0.021,1.809,0.127,2.047,0.373c0.037,0.037,0.018,0.162-0.012,0.258
	c-0.54,1.809-1.688,2.771-1.691,2.773c-0.524,0.418-0.549,1.114-0.058,1.559c0.258,0.23,0.604,0.348,0.949,0.348
	c0.321,0,0.642-0.1,0.896-0.299c0.068-0.057,1.696-1.375,2.432-3.844C53.927,31.717,53.511,30.997,53.105,30.581z"/>
<path fill="#444444" d="M55.548,34.854c1.233,0.045,2.665,0.268,3.159,0.479c0.17,0.442,0.661,0.763,1.241,0.763
	c0.72,0,1.305-0.492,1.305-1.104c0-1.292-1.629-1.896-3.501-2.166c1.389-2.256,1.264-3.379,1.174-3.709
	c-0.16-0.598-0.882-1.016-1.574-0.868c-0.699,0.135-1.147,0.687-0.983,1.278c0,0.012,0.071,1.082-1.86,3.629
	c-0.253,0.332-0.273,0.752-0.063,1.103C54.662,34.607,55.081,34.837,55.548,34.854z"/>
<path fill="#444444" d="M60.805,40.113c-0.535-0.398-1.354-0.352-1.832,0.1c-0.029,0.025-0.054,0.053-0.076,0.079
	c-0.397,0.037-1.162,0.067-2.578,0.013c-0.85-0.035-1.036-0.296-1.105-0.394c-0.529-0.735,0.045-2.603,0.6-3.634
	c0.299-0.553,0.012-1.209-0.644-1.459c-0.651-0.258-1.426-0.012-1.726,0.539c-0.201,0.369-1.92,3.668-0.461,5.699
	c0.447,0.619,1.365,1.373,3.213,1.447c0.574,0.023,1.086,0.037,1.541,0.037c2.229,0,3.13-0.291,3.478-1.023
	C61.42,41.083,61.225,40.422,60.805,40.113z"/>
<path fill="#939393" d="M21.104,44.055c10.129,3.566,21.11,5.086,31.848,3.42c3.616-0.562,8.43-1.197,11.258-3.842
	c3.231-3.021,3.709-7.105,3.841-11.354c0.288-9.274-5.609-14.752-13.588-18.599c-5.753-2.774-14.756-5.044-20.705-1.776
	c-0.848,0.465-0.091,1.761,0.757,1.295c5.575-3.062,13.732-0.592,19.191,1.776c3.514,1.524,6.678,3.776,9.347,6.505
	c3.454,3.532,3.592,7.799,3.447,12.426c-0.354,11.41-11.678,12.371-20.718,12.521c-8.552,0.143-16.238-0.988-24.28-3.82
	C20.588,42.286,20.198,43.734,21.104,44.055L21.104,44.055z"/>
</svg>
